<svg width="185" height="53" viewBox="0 0 185 53" fill="none" xmlns="http://www.w3.org/2000/svg">
<path d="M5.03514 4.96409C3.3466 4.96409 2.10647 4.85836 1.03784 5.92794C0.549146 6.41631 5.21986 9.20181 5.41779 9.5983C6.0377 10.8526 2.38338 12.8725 1.92176 13.7967C1.59166 14.4569 5.78722 16.2656 6.11699 16.5957C7.02735 17.5067 1.4466 21.4143 1.92144 22.3782C2.34373 23.2366 6.80298 24.8471 6.28849 25.877C5.93228 26.603 1.4466 30.6563 1.73704 30.96C2.99039 32.2143 5.45744 32.7687 6.4603 33.759C6.59184 33.8908 6.38101 34.1284 6.28849 34.287C5.8533 34.934 1.59166 39.7397 1.73704 39.8848C3.08259 41.2316 5.61572 41.3106 6.63149 42.3405C7.33069 43.0403 0.575893 49.2454 2.25122 50.9223C3.16189 51.8333 9.36255 51.2785 10.6552 51.2785C17.872 51.2785 25.1806 50.9223 32.3445 50.9223C63.7572 50.9223 95.46 53.0608 126.819 51.0938C140.936 50.2092 155.33 51.2521 169.327 49.6944C172.626 49.3247 176.069 49.4697 179.301 48.8231C179.869 48.7041 181.874 49.219 182.27 48.8231C182.718 48.3741 183.932 48.3873 184.367 47.9514C184.882 47.4366 180.212 44.8359 179.816 44.4529C179.618 44.255 184.011 42.3537 184.367 41.9972C185.172 41.1919 179.473 39.1981 179.288 39.0266C178.615 38.3532 183.431 35.462 183.668 34.9998C183.853 34.6436 179.024 32.4518 178.773 32.201C178.048 31.4748 183.18 28.7683 182.797 28.0027C182.006 26.4315 178.971 26.1146 178.417 25.0321C178.18 24.5699 181.755 22.0745 181.57 21.8766C181.227 21.5336 177.019 19.5795 177.019 19.4209C177.019 18.7078 180.766 15.843 181.043 15.5658C181.227 15.3808 180.291 14.9849 180.172 14.8659C178.971 13.6645 175.792 12.2387 175.792 12.2387C175.792 12.2387 176.399 12.1991 176.663 12.0672C177.956 11.4203 179.328 10.4561 179.987 9.79623C180.132 9.65116 179.882 9.3475 179.816 9.2682C178.958 8.41009 177.758 7.56487 177.019 6.81249C176.9 6.69354 175.449 6.37666 175.449 6.28446C175.449 5.94115 175.871 6.21838 175.977 6.11265C177.89 4.19848 181.636 4.76584 178.945 2.08608C177.995 1.13544 174.802 1.70312 173.523 1.38624C168.166 0.0394329 161.174 1.38624 155.673 1.38624C145.171 1.38624 134.524 0.330192 124.009 1.04324C112.307 1.82206 100.592 2.79913 88.8502 2.79913C61.0525 2.77238 31.8961 4.96409 5.03514 4.96409Z" fill="#2953A7"/>
<path fill-rule="evenodd" clip-rule="evenodd" d="M130.197 0.79216V9.14928C130.197 9.68297 130.195 10.2176 130.192 10.7529C124.565 10.9204 118.938 11.0774 113.31 11.2239C113.29 10.7391 113.268 10.2544 113.244 9.76982C113.161 8.32547 113.135 6.8166 113.107 5.28256C113.086 4.12456 113.065 2.95209 113.02 1.78213C108.033 2.11222 103.033 2.41588 98.0328 2.60059L98.0659 3.49679L98.069 3.5786C98.1678 6.25333 98.2663 8.91768 98.4652 11.589C93.2646 11.7092 88.0249 11.8218 82.8221 11.925C82.7409 10.1309 82.6264 8.33839 82.4785 6.5485C82.4095 5.74639 82.318 4.93328 82.2261 4.11607V4.11544L82.2258 4.11386V4.11323C82.1764 3.67979 82.1287 3.24617 82.0826 2.81237C79.6288 2.8388 77.1617 2.87845 74.6947 2.931L74.7331 3.51756L74.7334 3.5185L74.734 3.53014V3.53172L74.7737 4.13274C74.9502 6.76437 75.033 9.41833 75.0713 12.0713C69.6253 12.1695 64.2638 12.2548 59.078 12.3247C59.0827 10.2919 59.0871 8.26033 59.0871 6.23162C59.0759 5.42438 59.0646 4.61713 59.0532 3.80989L59.0475 3.40616C56.6774 3.4864 54.3072 3.57892 51.9409 3.6708C50.804 3.71517 49.6677 3.75954 48.5326 3.80234V3.80548C48.493 6.19418 48.4537 8.58287 48.4537 10.9845C48.4537 11.4722 48.4493 11.96 48.4414 12.4483C41.646 12.5132 35.3119 12.5443 29.6821 12.5333C29.7035 12.2211 29.7261 11.9033 29.7488 11.5808C29.9074 9.33809 30.0814 6.87482 30.0496 4.48895C25.5114 4.63402 20.9993 4.76587 16.54 4.85838C16.5268 5.94086 16.5268 6.95758 16.5268 7.71028C16.5268 9.27515 16.5476 10.8385 16.579 12.4011C10.2777 12.2642 6.05002 12.0166 4.71895 11.6314C4.60621 11.6018 4.49163 11.5797 4.37595 11.5654C4.03988 11.8737 3.66731 12.1802 3.31487 12.4707C2.67073 13.0009 2.09236 13.477 1.92212 13.8096C1.69241 14.269 3.6522 15.2835 4.97761 15.9702C5.55819 16.2707 6.01698 16.5083 6.11736 16.609C6.59567 17.0873 5.26743 18.4004 3.97632 19.6764C2.95363 20.6875 1.95391 21.6755 1.89569 22.2064C2.31767 22.167 2.80604 22.101 3.37309 22.0217C5.00971 21.7838 9.80629 21.623 16.8065 21.5182C16.8443 23.2561 16.8698 24.9947 16.8698 26.7352C16.8698 28.4181 16.8556 30.1126 16.8415 31.8128C16.838 32.2369 16.8342 32.6614 16.8311 33.0863C12.566 33.1703 9.60238 33.2175 8.32071 33.2175C7.42358 33.2307 6.55287 33.2175 5.69538 33.191C5.97624 33.3489 6.23745 33.5395 6.47357 33.7587C6.57993 33.8651 6.46382 34.0397 6.36627 34.1864C6.34396 34.2192 6.32255 34.2527 6.30208 34.2867C6.12995 34.5426 5.36057 35.4476 4.50182 36.4577C3.18711 38.004 1.66283 39.797 1.75063 39.8848C2.47217 40.6067 3.53011 40.9648 4.51598 41.2986C5.35113 41.5815 6.13467 41.8468 6.61864 42.3009C8.85471 42.3613 12.3734 42.3736 16.8767 42.3474C16.9337 44.4756 17.0366 46.5936 17.2128 48.691C17.2537 49.1998 17.305 49.7187 17.3569 50.2445C17.3884 50.5648 17.4205 50.8877 17.4504 51.2128C18.8205 51.1841 20.1912 51.1501 21.5597 51.1165C24.6057 51.0416 27.6436 50.9667 30.6566 50.9487C30.5396 49.1176 30.5188 47.28 30.4977 45.4426C30.4851 44.3617 30.4728 43.2808 30.4411 42.2011C35.9762 42.1221 42.1385 42.0177 48.6906 41.8949C48.9417 44.6892 49.1396 47.4861 49.1396 50.2753V51.107C52.754 51.1731 56.3813 51.2521 60.0088 51.3314H60.0104C59.911 49.3027 59.7992 47.2677 59.6875 45.2393L59.6869 45.2308C59.6359 44.3053 59.5853 43.3811 59.5355 42.4595L59.4975 41.6838C65.0996 41.5705 70.8755 41.4481 76.6982 41.3206C76.9572 43.9938 77.2074 46.6626 77.4122 49.3247C77.4777 50.0947 77.5041 50.8776 77.5302 51.6479L77.5312 51.6747L77.5343 51.675H77.5349C80.3834 51.7276 83.2318 51.7804 86.0931 51.8201C85.8404 50.0057 85.5214 48.2032 85.202 46.4014V46.4008C84.8926 44.654 84.5833 42.9079 84.3347 41.1514C89.6175 41.033 94.8936 40.9122 100.069 40.7917C100.196 42.9123 100.354 45.0307 100.566 47.1462C100.687 48.359 100.831 49.5793 100.975 50.7958C101.019 51.1684 101.063 51.5406 101.107 51.9123C105.329 51.8858 109.55 51.8198 113.759 51.6879C113.717 50.4371 113.644 49.1863 113.572 47.9354C113.461 46.0175 113.35 44.0998 113.35 42.1819C113.35 41.6146 113.351 41.0472 113.353 40.4795C119.28 40.3385 124.943 40.2026 130.179 40.0767C130.31 42.1549 130.496 44.2223 130.751 46.2749C130.844 46.9879 130.896 47.4499 130.976 48.1761C131.007 48.5075 131.025 48.8439 131.042 49.179L131.042 49.1803C131.054 49.4053 131.065 49.6303 131.081 49.8527C131.094 50.0639 131.108 50.4336 131.121 50.8959C134.643 50.7637 138.192 50.7241 141.728 50.6976C141.717 50.5005 141.704 50.3035 141.689 50.1067V50.1048L141.689 50.1042V50.1032C141.674 49.9009 141.662 49.742 141.662 49.6416C141.489 46.3666 141.365 43.089 141.293 39.8102C149.014 39.6258 155.108 39.4836 158.744 39.4106C158.854 42.1558 158.994 44.586 159.169 46.4992C159.288 47.8193 159.459 49.1129 159.631 50.4066L159.631 50.4072C162.889 50.2753 166.135 50.051 169.354 49.6944C169.592 49.668 169.829 49.6416 170.067 49.6284C170.04 48.6249 170 47.6217 169.961 46.6182C169.881 44.2748 169.778 41.9459 169.659 39.617C171.056 39.6472 172.449 39.6299 173.827 39.5018C174.406 39.4449 175.635 39.4128 177.094 39.375C177.995 39.3514 178.984 39.3259 179.961 39.2907C179.605 39.1453 179.368 39.0399 179.328 39.0002C178.88 38.5515 180.867 37.1188 182.314 36.0753C183.04 35.5527 183.629 35.1275 183.708 34.9734C183.829 34.7399 181.8 33.7194 180.315 32.9723C179.532 32.5787 178.9 32.2612 178.814 32.1743C178.427 31.7873 179.689 30.8401 180.906 29.9263C181.101 29.7806 181.293 29.6358 181.478 29.4942C179.402 29.4165 177.167 29.4461 175.575 29.4672C175.098 29.4746 174.62 29.4792 174.143 29.481C173.321 29.481 171.602 29.5062 169.132 29.5518C169.016 26.8979 168.923 24.2332 168.85 21.5657C171.787 21.5232 173.674 21.4612 174.275 21.3747C174.935 21.2816 175.843 21.2762 176.838 21.2702C177.953 21.2639 179.176 21.2567 180.278 21.1239C179.827 20.8906 179.374 20.6598 178.92 20.4316C177.93 19.9313 177.046 19.4841 177.046 19.4209C177.046 18.8586 179.376 16.9582 180.496 16.0438C180.797 15.7987 181.011 15.6243 181.069 15.5655C181.199 15.4365 180.779 15.2036 180.475 15.035C180.344 14.9626 180.235 14.9015 180.199 14.866C178.998 13.6645 175.819 12.2384 175.819 12.2384C175.819 12.2384 176.425 12.1991 176.689 12.0669C177.982 11.42 179.354 10.4564 180.014 9.79625C180.159 9.65087 179.909 9.34721 179.843 9.26823C179.526 8.93782 179.157 8.62126 178.787 8.30438C178.639 8.33333 178.49 8.36228 178.341 8.39186C177.539 8.5492 176.734 8.70779 175.911 8.81919C174.8 8.96614 172.284 9.1389 168.646 9.32833C168.634 7.59605 168.628 5.86786 168.628 4.14565C168.628 3.42315 168.605 2.68902 168.582 1.94733V1.94639V1.94167C168.57 1.56028 168.558 1.17701 168.549 0.79216C166.186 0.744959 163.713 0.92275 161.318 1.09519C160.384 1.16253 159.462 1.22893 158.562 1.28085C158.501 3.16229 158.448 6.16617 158.417 9.78933C153.521 9.98632 147.821 10.1921 141.555 10.3979C141.558 8.45354 141.557 6.50948 141.557 4.56511L141.556 2.37655C141.556 2.08138 141.586 1.68867 141.619 1.24057L141.62 1.22987L141.636 1.01652C137.81 0.858242 133.997 0.752512 130.197 0.79216ZM130.002 21.5997C124.74 21.5821 119.204 21.5607 113.509 21.5377C113.514 24.6328 113.483 27.7308 113.446 30.8269C119.116 30.6906 124.638 30.5585 129.896 30.4335C129.89 27.491 129.941 24.5419 130.002 21.5997ZM99.2431 21.4798C93.8917 21.4584 88.4846 21.4373 83.1062 21.4188C83.1811 24.7974 83.2592 28.1767 83.442 31.5491L95.387 31.2614L99.6465 31.1589L99.6288 30.6651C99.5206 27.6027 99.4124 24.54 99.2431 21.4798ZM75.1588 21.393C69.6914 21.3766 64.2981 21.364 59.0714 21.3564C59.0799 24.9488 59.1085 28.5417 59.1815 32.1296C64.548 32.0022 70.1218 31.8688 75.7932 31.7328C75.499 28.2862 75.2617 24.8377 75.1588 21.393ZM48.0543 21.3492C41.5003 21.3511 35.3553 21.3649 29.8344 21.3955L29.8539 21.6966V21.6972C29.8992 22.4015 29.9442 23.1007 29.9835 23.7911C30.1292 26.3428 30.1321 28.8973 30.1349 31.4509C30.1355 31.9015 30.1361 32.3524 30.1374 32.803C35.412 32.6854 41.4002 32.5475 47.8665 32.3965C47.6972 28.7264 47.8586 25.0356 48.0543 21.3492ZM141.467 21.6324C147.834 21.6463 153.566 21.65 158.399 21.6378C158.413 24.3392 158.441 27.0911 158.486 29.7727C153.571 29.881 147.738 30.0144 141.269 30.1654C141.285 29.2985 141.306 28.4322 141.332 27.5669C141.391 25.5885 141.435 23.6108 141.467 21.6324Z" fill="#F7F2EC"/>
<path d="M5.03514 4.96409C3.3466 4.96409 2.10647 4.85836 1.03784 5.92794C0.549146 6.41631 5.21986 9.20181 5.41779 9.5983C6.0377 10.8526 2.38338 12.8725 1.92176 13.7967C1.59166 14.4569 5.78722 16.2656 6.11699 16.5957C7.02735 17.5067 1.4466 21.4143 1.92144 22.3782C2.34373 23.2366 6.80298 24.8471 6.28849 25.877C5.93228 26.603 1.4466 30.6563 1.73704 30.96C2.99039 32.2143 5.45744 32.7687 6.4603 33.759C6.59184 33.8908 6.38101 34.1284 6.28849 34.287C5.8533 34.934 1.59166 39.7397 1.73704 39.8848C3.08259 41.2316 5.61572 41.3106 6.63149 42.3405C7.33069 43.0403 0.575893 49.2454 2.25122 50.9223C3.16189 51.8333 9.36255 51.2785 10.6552 51.2785C17.872 51.2785 25.1806 50.9223 32.3445 50.9223C63.7572 50.9223 95.46 53.0608 126.819 51.0938C140.936 50.2092 155.33 51.2521 169.327 49.6944C172.626 49.3247 176.069 49.4697 179.301 48.8231C179.869 48.7041 181.874 49.219 182.27 48.8231C182.718 48.3741 183.932 48.3873 184.367 47.9514C184.882 47.4366 180.212 44.8359 179.816 44.4529C179.618 44.255 184.011 42.3537 184.367 41.9972C185.172 41.1919 179.473 39.1981 179.288 39.0267C178.615 38.3532 183.431 35.462 183.668 34.9998C183.853 34.6436 179.024 32.4518 178.773 32.201C178.048 31.4748 183.18 28.7683 182.797 28.0027C182.006 26.4315 178.971 26.1146 178.417 25.0321C178.18 24.5699 181.755 22.0745 181.57 21.8766C181.227 21.5336 177.019 19.5795 177.019 19.4209C177.019 18.7078 180.766 15.843 181.043 15.5658C181.227 15.3808 180.291 14.9849 180.172 14.8659C178.971 13.6645 175.792 12.2387 175.792 12.2387C175.792 12.2387 176.399 12.1991 176.663 12.0672C177.956 11.4203 179.328 10.4561 179.987 9.79623C180.132 9.65116 179.882 9.3475 179.816 9.2682C178.958 8.41009 177.758 7.56487 177.019 6.81249C176.9 6.69354 175.449 6.37666 175.449 6.28446C175.449 5.94115 175.871 6.21838 175.977 6.11265C177.89 4.19848 181.636 4.76584 178.945 2.08608C177.995 1.13544 174.802 1.70312 173.523 1.38624C168.166 0.0394329 161.174 1.38624 155.673 1.38624C145.171 1.38624 134.524 0.330192 124.009 1.04324C112.307 1.82206 100.592 2.79913 88.8502 2.79913C61.0525 2.77238 31.8961 4.96409 5.03514 4.96409Z" stroke="#292524" stroke-width="0.472012" stroke-miterlimit="6.395" stroke-linecap="round" stroke-linejoin="round"/>
</svg>
